<svg width="116" height="28" viewBox="0 0 116 28" fill="none" xmlns="http://www.w3.org/2000/svg">
<path fill-rule="evenodd" clip-rule="evenodd" d="M12.9566 0.0356289L15.8828 0L22.4845 13.8953C26.1244 21.5555 29.0149 27.8974 28.9078 27.9686C28.8008 28.0755 28.0871 27.8974 27.302 27.6124C26.5169 27.3273 24.3401 26.8285 22.4845 26.5791C20.6289 26.2941 17.0604 26.0447 14.5624 26.0447C12.0288 26.0447 8.74574 26.2228 7.24696 26.4366C5.7125 26.6148 3.50002 27.0423 2.32241 27.3273C1.1448 27.6124 0.109936 27.7549 0.00288069 27.648C-0.104175 27.5411 2.78632 21.3061 6.39052 13.7527L12.9566 0.0356289ZM11.779 14.9997C10.7441 17.2444 9.78061 19.4177 9.63786 19.8096C9.35238 20.5222 9.49512 20.5222 14.491 20.5222C17.7741 20.5222 19.594 20.3797 19.487 20.1659C19.4156 19.9878 18.345 17.565 17.0961 14.8216C15.8828 12.0782 14.7765 9.69105 14.6695 9.5129C14.5267 9.33476 14.2412 9.58416 14.0271 10.0473C13.813 10.5105 12.7782 12.7551 11.779 14.9997ZM46.3935 0.92635L50.7114 10.368C53.0667 15.5698 55.1721 20.1659 55.3505 20.6291C55.6717 21.3773 55.6003 21.4129 51.6749 21.2348L48.2135 13.6102C46.3222 9.40602 44.6093 5.91439 44.4309 5.84313C44.2168 5.77187 43.2176 7.62457 42.1827 9.90482C41.1478 12.2207 40.3984 14.1803 40.5412 14.2872C40.6482 14.3941 41.8615 14.5366 45.7155 14.8216L47.1072 17.8501H43.0748C40.8623 17.8501 38.8997 17.9926 38.7212 18.1351C38.5071 18.2776 38.0075 19.0614 37.6507 19.9165C36.937 21.4129 36.937 21.4486 35.0457 21.4129C34.0108 21.4129 33.19 21.3417 33.19 21.2348C33.19 21.1279 35.117 16.7812 37.5079 11.5437C39.8632 6.27068 41.9686 1.71018 42.1827 1.3539C42.4682 0.855092 42.8964 0.748206 46.3935 0.92635ZM86.004 0.748206H89.5725V4.31109H86.004V0.748206ZM78.189 6.52008C78.9384 6.6626 80.0446 7.05451 80.6513 7.33954C81.2222 7.62457 82.1143 8.40841 82.5783 9.04973C83.0422 9.65542 83.6488 10.6887 83.8629 11.2587C84.077 11.8644 84.2911 13.2183 84.2911 14.2872C84.2911 15.5698 84.0414 16.7456 83.5774 17.6719C83.1849 18.4557 82.3285 19.5959 81.6861 20.2016C80.9367 20.8429 79.7591 21.4486 78.6886 21.698C77.6894 21.9117 76.262 21.983 75.5126 21.8405C74.7275 21.698 74.0495 21.4486 73.9781 21.2348C73.8711 21.0567 74.0852 20.2728 74.3707 19.5602C74.906 18.2776 75.013 18.2063 76.5475 18.2776C77.9749 18.3132 78.3317 18.1707 79.4023 17.1018C80.0803 16.4249 80.687 15.4985 80.7583 14.9997C80.8654 14.5009 80.7583 13.5746 80.6156 12.9689C80.4371 12.3276 79.7948 11.4012 79.2239 10.9024C78.4388 10.2611 77.7251 10.0117 76.5475 10.0117C75.3699 10.0117 74.6562 10.2611 73.8711 10.9024C73.2645 11.4012 72.5265 14.2515 72.348 14.9997C72.1339 15.7123 72.0868 17.3869 72.0868 27.4698H68.5183L68.6968 6.62697L69.9457 6.52008C70.8022 6.41319 71.4088 6.59134 71.837 7.05451C72.408 7.62457 72.5864 7.62457 73.2644 7.23266C73.6927 6.94763 74.6562 6.62697 75.4055 6.48445C76.1549 6.34194 77.4039 6.37756 78.189 6.52008ZM60.9174 6.48445C61.9523 6.44882 63.3083 6.6626 63.9506 6.94763C64.593 7.23266 65.4494 7.69583 65.8419 7.98086C66.5556 8.55092 66.52 8.58655 65.378 9.72668C64.2004 10.9024 64.2004 10.9024 63.1656 10.2967C62.5589 9.94045 61.6311 9.65542 61.0958 9.65542C60.5605 9.61979 59.9182 9.86919 59.6684 10.1899C59.4186 10.4749 59.3116 10.9737 59.4186 11.2587C59.5257 11.5437 60.2751 11.9713 61.0958 12.1851C61.9523 12.3988 63.2369 12.8976 63.9506 13.2539C64.7 13.6459 65.6278 14.4297 66.0204 14.9997C66.4129 15.6054 66.7341 16.6387 66.7341 17.3156C66.7341 17.9926 66.52 18.9902 66.2345 19.5602C65.9847 20.0947 65.3066 20.8429 64.7357 21.2348C64.0577 21.6623 63.0942 21.9117 61.9166 21.9117C60.9174 21.9117 59.4186 21.6623 58.5265 21.3417C57.6344 21.021 56.6709 20.4866 56.3854 20.1659C55.8858 19.6671 55.9571 19.489 58.1339 17.3156L59.3116 17.9569C60.0253 18.3489 60.9888 18.5626 61.7382 18.4914C62.7373 18.4201 62.9871 18.2063 63.0585 17.6007C63.1299 16.8881 62.8087 16.6387 60.5605 15.8192C58.9904 15.2491 57.4916 14.3941 56.7422 13.6459C55.5646 12.5057 55.4933 12.292 55.6717 10.7243C55.7787 9.65542 56.1356 8.65781 56.6709 8.05212C57.1348 7.48206 57.8842 6.94763 58.2767 6.76948C58.7049 6.62697 59.8825 6.48445 60.9174 6.48445ZM93.605 6.73385C94.4257 6.84074 95.1751 7.05451 95.2822 7.23266C95.3892 7.44643 95.9602 7.33954 96.6025 7.01888C97.2448 6.69822 98.1727 6.44882 98.6723 6.44882C99.493 6.44882 99.5644 6.59134 99.5644 8.05212C99.5644 9.58416 99.493 9.69105 98.0299 10.2967C96.9594 10.7599 96.3527 11.33 95.8888 12.2563C95.4249 13.2539 95.2822 14.5009 95.2822 21.4129H91.7137L91.6423 14.1803C91.6066 10.1899 91.7137 6.84074 91.8207 6.73385C91.9634 6.62697 92.7485 6.62697 93.605 6.73385ZM107.594 6.48445C108.771 6.48445 110.127 6.69822 110.627 6.98326C111.376 7.4108 111.59 7.37517 112.054 6.94763C112.411 6.59134 113.089 6.44882 115.444 6.62697L115.623 21.4129H112.054V12.5057L110.805 11.2587C109.806 10.2611 109.271 10.0117 108.129 10.0117C107.344 10.0117 106.202 10.2611 105.631 10.5461C105.024 10.8668 104.311 11.615 104.025 12.3276C103.74 13.0045 103.49 13.9309 103.49 14.3941C103.49 14.8216 103.811 15.7123 104.203 16.3536C104.596 16.995 105.524 17.7432 106.237 18.0638C107.023 18.3845 107.986 18.527 108.486 18.3845C109.271 18.1707 109.449 18.3489 110.02 19.7028C110.341 20.5578 110.591 21.2704 110.555 21.3417C110.484 21.3773 109.806 21.5555 109.021 21.7692C108.093 21.983 107.023 21.9474 105.988 21.7336C105.096 21.5555 103.811 20.9854 103.133 20.5222C102.455 20.059 101.527 19.0614 101.099 18.3132C100.671 17.565 100.207 16.2468 100.064 15.356C99.9212 14.4297 99.9926 13.0758 100.207 12.1494C100.457 11.2587 101.17 9.90482 101.813 9.12099C102.491 8.33715 103.561 7.4108 104.239 7.09014C104.989 6.69822 106.273 6.48445 107.594 6.48445ZM86.004 6.80511H89.5725V21.4129H86.004V6.80511Z" fill="#181823"/>
</svg>
